<svg xmlns="http://www.w3.org/2000/svg" width="32" height="32" viewBox="0 0 24 24" fill="none" stroke="#0069ff" stroke-width="1.5" stroke-linecap="round" stroke-linejoin="round">
    <path d="M12 2v20M2 12h20" opacity="0.1" />
    <path d="M12 2C6.477 2 2 6.477 2 12s4.477 10 10 10 10-4.477 10-10S17.523 2 12 2z" opacity="0.2" />
    <path d="M12 8c-2.21 0-4 1.79-4 4s1.79 4 4 4 4-1.79 4-4-1.79-4-4-4z" stroke-width="2.5" />
    <path d="M16 12a4 4 0 0 1-8 0" opacity="0.6" />
    <circle cx="12" cy="12" r="1.5" fill="#0069ff" />
</svg>
